<?xml version="1.0" encoding="UTF-8" standalone="no"?>
<!-- Created with Inkscape (http://www.inkscape.org/) -->

<svg
   xmlns:dc="http://purl.org/dc/elements/1.1/"
   xmlns:cc="http://creativecommons.org/ns#"
   xmlns:rdf="http://www.w3.org/1999/02/22-rdf-syntax-ns#"
   xmlns:svg="http://www.w3.org/2000/svg"
   xmlns="http://www.w3.org/2000/svg"
   xmlns:sodipodi="http://sodipodi.sourceforge.net/DTD/sodipodi-0.dtd"
   xmlns:inkscape="http://www.inkscape.org/namespaces/inkscape"
   width="120"
   height="120"
   viewBox="0 0 120 120"
   id="svg2"
   version="1.1"
   inkscape:version="0.91 r13725"
   sodipodi:docname="Logo.svg">
  <defs
     id="defs4" />
  <sodipodi:namedview
     id="base"
     pagecolor="#ffffff"
     bordercolor="#666666"
     borderopacity="1.0"
     inkscape:pageopacity="0.0"
     inkscape:pageshadow="2"
     inkscape:zoom="2.8"
     inkscape:cx="37.74507"
     inkscape:cy="34.110429"
     inkscape:document-units="px"
     inkscape:current-layer="svg2"
     showgrid="false"
     inkscape:window-width="1855"
     inkscape:window-height="1176"
     inkscape:window-x="65"
     inkscape:window-y="24"
     inkscape:window-maximized="1"
     units="px"
     showborder="false"
     fit-margin-top="0"
     fit-margin-left="0"
     fit-margin-right="0"
     fit-margin-bottom="0" />
  <metadata
     id="metadata7">
    <rdf:RDF>
      <cc:Work
         rdf:about="">
        <dc:format>image/svg+xml</dc:format>
        <dc:type
           rdf:resource="http://purl.org/dc/dcmitype/StillImage" />
        <dc:title></dc:title>
      </cc:Work>
    </rdf:RDF>
  </metadata>
  <g
     id="g4304"
     transform="matrix(0.40906241,0,0,0.41112915,-41.415816,-62.523782)">
    <g
       id="g4856">
      <g
         id="g4908">
        <path
           inkscape:connector-curvature="0"
           id="path4240"
           d="m 233.97269,433.58259 c -11.26935,-6.63262 -16.44848,-7.73871 -28.49258,-6.08511 -14.19473,1.94887 -18.53042,-0.12278 -27.03717,-12.91876 -5.59576,-8.41723 -11.02311,-12.20197 -22.49272,-15.68523 -4.68719,-1.42347 -9.72105,-3.43481 -11.18634,-4.46963 -3.60692,-2.54728 -6.52024,-8.96124 -7.8263,-17.2303 -1.74898,-11.07334 -5.87511,-17.88222 -15.24678,-25.15998 -6.16198,-4.78521 -9.69928,-10.50607 -9.74079,-15.75376 -0.0121,-1.52707 0.93163,-6.4553 2.09713,-10.95162 2.78749,-10.75366 2.17871,-16.27104 -3.04702,-27.61543 -6.16322,-13.37956 -5.5864,-18.93563 3.027,-29.15645 6.6868,-7.93468 8.30986,-12.88799 8.59926,-26.24358 0.36537,-16.86171 1.98731,-19.5764 15.86166,-26.54824 7.3198,-3.67819 12.8345,-9.53309 16.09527,-17.08817 7.26017,-16.82157 9.72125,-18.82426 24.71113,-20.10856 11.76751,-1.00822 16.67061,-3.13835 24.94752,-10.83833 11.95086,-11.11785 15.61017,-11.84294 31.16215,-6.17473 8.47118,3.08747 17.08718,2.91859 26.02394,-0.51009 8.08228,-3.10085 15.64367,-3.58295 20,-1.27517 1.65,0.87409 5.65588,4.16492 8.90195,7.31295 7.93572,7.69605 14.38708,10.53586 25.96054,11.42752 5.24044,0.40374 10.48522,1.40785 12.29751,2.35433 4.63045,2.41831 8.52906,7.69111 11.17536,15.11451 3.22749,9.05375 9.19909,15.45372 19.34406,20.73171 11.84757,6.16379 13.15068,8.53527 13.88301,25.26514 0.64199,14.66618 2.01165,18.55978 9.79892,27.85574 7.42717,8.8661 7.84265,15.29114 1.79299,27.72753 -4.95246,10.18087 -5.59701,16.88654 -2.69515,28.03952 3.4806,13.37732 1.62324,19.25786 -8.49553,26.89761 -8.31088,6.27477 -12.14192,12.76996 -14.52786,24.63068 -2.87649,14.29926 -6.55635,18.59079 -18.4358,21.50025 -10.89529,2.66841 -17.12708,7.04905 -23.5803,16.57578 -7.96099,11.75262 -13.37985,14.5068 -24.535,12.47012 -12.52078,-2.28602 -19.26091,-0.91359 -31.33909,6.38126 -6.4565,3.89952 -8.19707,4.50222 -13.0023,4.50222 -4.8542,0 -6.6046,-0.62192 -13.99867,-4.97373 z"
           style="display:inline;fill:#424548;fill-opacity:1" />
        <path
           inkscape:connector-curvature="0"
           id="path4238"
           d="m 238.31897,440.93022 c -3.24001,-1.71936 -8.26587,-4.39365 -11.16859,-5.94288 -7.04713,-3.76116 -12.82074,-4.47946 -23.8424,-2.96623 -7.27786,0.99922 -9.967,1.00545 -13.0256,0.0302 -4.55579,-1.45266 -10.49355,-6.8558 -13.87881,-12.6292 -4.82305,-8.22547 -17.99977,-17.29458 -25.26303,-17.38773 -2.91864,-0.0374 -9.58053,-3.58517 -12.42364,-6.61611 -2.98459,-3.1818 -5.78885,-10.11204 -5.78885,-14.30618 0,-8.99813 -6.13828,-19.62427 -15.65752,-27.10515 -9.82152,-7.71843 -12.26122,-14.97933 -8.91059,-26.51912 3.55378,-12.23947 2.68231,-20.63342 -3.30758,-31.85822 -5.824479,-10.91483 -5.077513,-17.79269 3.01876,-27.79588 7.93382,-9.80249 9.06102,-13.11503 9.7924,-28.7774 0.34673,-7.425 1.13937,-14.4 1.76142,-15.5 1.85571,-3.28153 6.48519,-7.12519 11.80311,-9.79961 11.93197,-6.00067 17.04758,-11.74004 21.98807,-24.66915 2.67919,-7.01137 7.02835,-12.16083 11.78542,-13.95409 1.52542,-0.57503 7.1972,-1.46175 12.60397,-1.97048 11.94554,-1.12398 17.56321,-3.66938 25.86006,-11.7173 6.55277,-6.35618 12.10103,-9.33554 17.44426,-9.36741 2.02498,-0.0121 7.42498,1.36902 12,3.0691 7.35272,2.73228 9.24678,3.04294 16.31822,2.67642 5.40469,-0.28012 9.62207,-1.14226 13,-2.65752 6.47734,-2.90558 13.22004,-3.68749 18.05067,-2.09324 2.14624,0.70833 6.76174,4.01992 10.51276,7.54284 9.46538,8.88983 15.00492,11.45129 27.02263,12.49517 5.35746,0.46536 11.27594,1.48751 13.15218,2.27145 4.63164,1.93522 9.12659,7.66169 11.80624,15.0409 4.13301,11.38138 9.72676,17.48306 21.45552,23.40368 11.10247,5.60447 13.5,10.1615 13.5,25.65961 0,12.94554 1.86298,18.56041 8.98156,27.06963 5.45463,6.52023 8.52311,14.36544 7.49173,19.15418 -0.33713,1.5652 -2.37057,6.67082 -4.5188,11.34582 -5.157,11.22275 -5.8164,17.19054 -3.07006,27.78544 1.16356,4.48886 2.11558,9.90271 2.11558,12.03078 0,5.77387 -3.69617,11.66626 -11,17.53608 -7.26435,5.83809 -12.30409,13.29602 -13.82772,20.46261 -0.54784,2.5768 -1.52823,7.31835 -2.17865,10.53678 -1.7353,8.58672 -6.09396,13.04611 -15.36816,15.72334 -14.86199,4.2903 -20.15722,7.92749 -27.68961,19.01943 -7.47204,11.00306 -13.60953,14.0484 -24.33126,12.07285 -12.92223,-2.38102 -21.04563,-0.91288 -31.17867,5.63491 -11.08796,7.16484 -16.15109,7.78606 -25.03501,3.07168 z m 14.74007,-0.21281 c 2.44687,-0.7364 6.83764,-2.98211 9.75728,-4.99046 9.12668,-6.27805 17.70681,-7.84454 30.63523,-5.59315 11.26759,1.96216 17.17592,-1.13202 25.0847,-13.1368 6.35579,-9.64747 11.78633,-13.45383 23.43614,-16.42678 12.60213,-3.21597 16.89179,-8.16403 19.36639,-22.3389 2.10003,-12.02932 6.19326,-18.77768 15.56022,-25.65367 5.10948,-3.75071 10.02905,-11.7469 10.02905,-16.30106 0,-1.31287 -0.94564,-6.06202 -2.10142,-10.55366 -2.98348,-11.59445 -2.29609,-18.30468 2.98808,-29.16867 6.23531,-12.81946 5.72389,-18.44184 -2.58945,-28.46852 -7.45608,-8.9927 -8.65125,-12.56565 -9.26399,-27.69443 -0.51138,-12.62595 -0.65668,-13.34064 -3.54855,-17.45416 -2.17007,-3.08681 -5.20063,-5.45317 -10.81096,-8.44157 -9.9388,-5.294 -14.84996,-10.12525 -18.10776,-17.81315 -7.47696,-17.64431 -10.5665,-20.18912 -26.15455,-21.54312 -12.5385,-1.08911 -17.31464,-3.249 -26.95931,-12.19165 -10.93573,-10.13975 -14.97263,-10.70037 -31.45209,-4.36787 -7.09608,2.72678 -17.13969,2.33108 -25,-0.98497 -7.65904,-3.23113 -15.94234,-3.7718 -20.5,-1.33807 -1.65,0.88108 -5.59279,4.11653 -8.76176,7.18988 -8.34912,8.0972 -13.97402,10.63509 -25.85948,11.66748 -14.94027,1.29773 -19.6852,4.42902 -23.9046,15.7752 -4.44422,11.95073 -9.44627,17.86682 -19.26107,22.78073 -13.22839,6.62296 -15.71308,10.68133 -15.71308,25.66494 0,13.2524 -1.70188,19.05392 -7.76937,26.48495 -9.84637,12.05913 -10.56027,17.49557 -4.13043,31.45392 5.31053,11.52847 5.92543,17.49974 2.90906,28.24945 -3.67681,13.10337 -1.52984,20.05516 8.54233,27.65973 9.20584,6.95047 12.97697,13.24425 15.04967,25.11693 0.76048,4.35617 2.1374,9.51072 3.05981,11.45455 2.31365,4.87565 8.0537,8.73582 15.93332,10.71512 11.78681,2.96075 18.11833,7.54393 24.75572,17.91984 6.67253,10.43083 13.5038,13.74815 24.26519,11.78337 12.68521,-2.31604 21.35376,-0.73494 30.51281,5.56538 4.69267,3.22799 11.22843,6.05289 14.46295,6.2512 0.60009,0.0368 3.09305,-0.53561 5.53992,-1.27201 z"
           style="fill:#424548;fill-opacity:1" />
      </g>
    </g>
  </g>
</svg>
